<svg width="62" height="62" viewBox="0 0 62 62" fill="none" xmlns="http://www.w3.org/2000/svg">
<circle cx="30.8916" cy="30.8916" r="30.8916" fill="#DBD9EE"/>
<path d="M37.6606 16.452C33.1884 15.7022 28.5985 15.7022 24.1263 16.452C22.4925 16.7259 21.1913 17.9802 20.8637 19.6065C19.363 27.0572 19.2811 34.724 20.6224 42.205L21.1685 45.2508C21.3368 46.19 22.4818 46.5653 23.1735 45.9082L29.7651 39.6462C30.3974 39.0455 31.3895 39.0455 32.0218 39.6462L38.6134 45.9082C39.3051 46.5653 40.4501 46.19 40.6184 45.2508L41.1645 42.205C42.5058 34.724 42.4239 27.0572 40.9232 19.6065C40.5956 17.9802 39.2944 16.7259 37.6606 16.452Z" fill="#6C5FBC"/>
</svg>
